M48
;Layer_Color=9474304
;FILE_FORMAT=4:4
METRIC,LZ
;TYPE=PLATED
T01F00S00C0.5000
T02F00S00C0.8000
T03F00S00C0.8500
T04F00S00C0.8900
T05F00S00C1.2300
%
T01
X011557Y0038775
Y0043775
X0115697Y0049189
Y0054189
X011557Y0059349
Y0064349
X0116078Y0068747
Y0073747
X0116332Y007878
X0034036Y007755
X0033782Y0071969
Y0066969
X003429Y0062063
Y0057063
X0034036Y0052411
Y0047411
Y008255
X0033909Y0089488
Y0094488
X0116586Y0094194
Y0089194
X0116332Y008378
T02
X0064516Y0110803
Y0120083
T03
X0093599Y005207
Y005461
X0060452Y0103124
X0057912
T04
X0093853Y0033076
Y0043886
X0077287Y0101473
X0066477
X0058166Y0110292
Y0121102
T05
X0049276Y0114681
Y0117221
Y0119761
M30
