G04*
G04 #@! TF.GenerationSoftware,Altium Limited,Altium Designer,24.2.2 (26)*
G04*
G04 Layer_Physical_Order=1*
G04 Layer_Color=255*
%FSLAX44Y44*%
%MOMM*%
G71*
G04*
G04 #@! TF.SameCoordinates,7C6F70DD-8240-47E6-B7E4-941F69E807E0*
G04*
G04*
G04 #@! TF.FilePolarity,Positive*
G04*
G01*
G75*
%ADD26C,2.0000*%
%ADD27C,1.0000*%
%ADD28C,2.2860*%
%ADD29R,5.0000X5.0000*%
%ADD30R,1.4000X1.3580*%
%ADD31O,1.3580X1.4000*%
%ADD32C,2.0000*%
%ADD33R,2.4000X1.5000*%
%ADD34O,2.4000X1.5000*%
%ADD35R,1.7000X1.7000*%
%ADD36C,1.7000*%
%ADD37R,5.0000X5.0000*%
%ADD38R,1.3580X1.4000*%
%ADD39O,1.4000X1.3580*%
D26*
X1155700Y643490D02*
X1159910D01*
X1197210D01*
X1235710Y681990D02*
Y711200D01*
X1197210Y643490D02*
X1235710Y681990D01*
X1160780Y737470D02*
X1209440D01*
X1235710Y711200D01*
X1160780Y737470D02*
X1162450Y739140D01*
X563880Y725680D02*
X672340D01*
X735330Y788670D01*
X1000000D01*
X1031240Y757430D01*
Y1022350D01*
X1088390Y1079500D01*
X306470Y524110D02*
X340360D01*
X284480Y546100D02*
X306470Y524110D01*
X284480Y546100D02*
Y562210D01*
X342900Y620630D01*
X280305Y629233D02*
X332055D01*
X340658Y620630D01*
X342900D01*
X275590Y633948D02*
Y657460D01*
Y633948D02*
X280305Y629233D01*
X275590Y657460D02*
X337820Y719690D01*
X281940Y732790D02*
Y767080D01*
Y732790D02*
X295040Y719690D01*
X337820D01*
X281940Y767080D02*
X340360Y825500D01*
X278130Y834390D02*
X287020Y825500D01*
X340360D01*
X278130Y834390D02*
Y883920D01*
X339090Y944880D01*
X323850Y960120D02*
X339090Y944880D01*
X323850Y960120D02*
Y1062480D01*
X324610Y1061720D02*
X563880Y822450D01*
X323850Y1062480D02*
X324610Y1061720D01*
X563880Y725680D02*
Y822450D01*
X412750Y1031240D02*
X579120D01*
X382270Y1061720D02*
X412750Y1031240D01*
X324610Y1061720D02*
X382270D01*
X325120Y1063750D02*
Y1094740D01*
X323850Y1062480D02*
X325120Y1063750D01*
Y1094740D02*
X333300Y1102920D01*
X581660D01*
X1181500Y541890D02*
X1181970D01*
X1156970D02*
X1181500D01*
X1181970D02*
X1211580Y571500D01*
Y591820D01*
X1159910Y643490D02*
X1211580Y591820D01*
X1180700Y437750D02*
X1203090D01*
X1155700D02*
X1180700D01*
X1210310Y467360D02*
Y513080D01*
X1180700Y437750D02*
X1210310Y467360D01*
X1181500Y541890D02*
X1210310Y513080D01*
X1220208Y330760D02*
X1246396Y356948D01*
X938530Y330760D02*
X1220208D01*
X1246396Y356948D02*
Y394444D01*
X1203090Y437750D02*
X1246396Y394444D01*
X798270Y330760D02*
X938530D01*
X765810Y363220D02*
Y633730D01*
Y363220D02*
X798270Y330760D01*
X765810Y633730D02*
X889510Y757430D01*
X1031240D01*
X1163320Y837800D02*
X1201020D01*
X1228090Y864870D01*
Y920750D01*
X1206900Y941940D02*
X1228090Y920750D01*
X1165860Y941940D02*
X1206900D01*
X1088390Y1050290D02*
X1165860Y972820D01*
Y941940D02*
Y972820D01*
X1088390Y1050290D02*
Y1079500D01*
X838710Y1126490D02*
X922020D01*
X970030Y1174500D02*
X1088390D01*
X922020Y1126490D02*
X970030Y1174500D01*
D27*
X1031240Y698500D02*
X1037590Y704850D01*
X1031240Y662430D02*
Y698500D01*
X1037590Y704850D02*
X1059180D01*
X1070610Y716280D01*
Y796690D02*
X1165860Y891940D01*
X1070610Y716280D02*
Y796690D01*
X1111250Y735730D02*
X1163320Y787800D01*
X1111250Y709930D02*
Y735730D01*
X546610Y630680D02*
Y634272D01*
X386550Y894880D02*
X424180Y857250D01*
X339090Y894880D02*
X386550D01*
X424180Y784860D02*
Y857250D01*
Y784860D02*
X529590Y679450D01*
X558800D01*
X563880Y630680D02*
Y674370D01*
X558800Y679450D02*
X563880Y674370D01*
X536558Y640732D02*
X540150D01*
X441490Y674370D02*
X502920D01*
X546610Y630680D02*
X563880D01*
X376830D02*
X546610D01*
X540150Y640732D02*
X546610Y634272D01*
X502920Y674370D02*
X536558Y640732D01*
X340360Y775500D02*
X441490Y674370D01*
X503830Y570630D02*
X563880Y630680D01*
X407310Y474110D02*
X503830Y570630D01*
X340360Y474110D02*
X407310D01*
X342900Y570630D02*
X503830D01*
X337820Y669690D02*
X376830Y630680D01*
X935990Y546100D02*
Y598170D01*
X1000250Y662430D01*
X1031240D01*
X937260Y440130D02*
Y519430D01*
X935990Y520700D02*
X937260Y519430D01*
Y440130D02*
X938530Y438860D01*
X610280Y1108030D02*
X645160D01*
X492760Y1146810D02*
X571500D01*
X610280Y1108030D01*
X323850Y1157480D02*
X391670D01*
X406400Y1172210D01*
X492760D01*
Y1197610D02*
X539750D01*
X553160Y1211020D01*
X581660D01*
X582220Y1211580D02*
X603250D01*
X581660Y1211020D02*
X582220Y1211580D01*
X614000Y1200830D02*
X645160D01*
X603250Y1211580D02*
X614000Y1200830D01*
X648260Y1031240D02*
X664770Y1014730D01*
X604520Y1031240D02*
X648260D01*
X645750Y1107440D02*
X676910D01*
X645160Y1108030D02*
X645750Y1107440D01*
X695960Y1126490D02*
X743710D01*
X676910Y1107440D02*
X695960Y1126490D01*
X743710Y1072390D02*
Y1126490D01*
Y1072390D02*
X772870Y1043230D01*
Y1014730D02*
Y1043230D01*
X1031240Y617620D02*
Y662430D01*
Y512210D02*
Y617620D01*
Y512210D02*
X1155700Y387750D01*
X1031240Y617620D02*
X1156970Y491890D01*
X1100180Y593490D02*
X1155700D01*
X1031240Y662430D02*
X1100180Y593490D01*
X1063750Y662430D02*
X1135740D01*
X1031240D02*
X1063750D01*
X1135740D02*
X1160780Y687470D01*
X1063750Y662430D02*
X1111250Y709930D01*
D28*
X1155700Y387750D02*
D03*
Y437750D02*
D03*
X1156970Y491890D02*
D03*
Y541890D02*
D03*
X1155700Y593490D02*
D03*
Y643490D02*
D03*
X1165860Y941940D02*
D03*
Y891940D02*
D03*
X1160780Y737470D02*
D03*
Y687470D02*
D03*
X1163320Y837800D02*
D03*
Y787800D02*
D03*
X340360Y524110D02*
D03*
Y474110D02*
D03*
X342900Y620630D02*
D03*
Y570630D02*
D03*
X337820Y719690D02*
D03*
Y669690D02*
D03*
X339090Y944880D02*
D03*
Y894880D02*
D03*
X340360Y825500D02*
D03*
Y775500D02*
D03*
D29*
X1031240Y662430D02*
D03*
Y757430D02*
D03*
X1088390Y1174500D02*
D03*
Y1079500D02*
D03*
X323850Y1157480D02*
D03*
Y1062480D02*
D03*
X563880Y630680D02*
D03*
Y725680D02*
D03*
D30*
X604520Y1031240D02*
D03*
D31*
X579120D02*
D03*
D32*
X664770Y1014730D02*
D03*
X772870D02*
D03*
X581660Y1211020D02*
D03*
Y1102920D02*
D03*
X938530Y330760D02*
D03*
Y438860D02*
D03*
D33*
X492760Y1197610D02*
D03*
D34*
Y1172210D02*
D03*
Y1146810D02*
D03*
D35*
X645160Y1108030D02*
D03*
D36*
Y1200830D02*
D03*
D37*
X743710Y1126490D02*
D03*
X838710D02*
D03*
D38*
X935990Y546100D02*
D03*
D39*
Y520700D02*
D03*
M02*
